<?xml version="1.0" standalone="no"?>
<!DOCTYPE svg PUBLIC "-//W3C//DTD SVG 20010904//EN"
 "http://www.w3.org/TR/2001/REC-SVG-20010904/DTD/svg10.dtd">
<svg version="1.0" xmlns="http://www.w3.org/2000/svg"
 width="16.000000pt" height="16.000000pt" viewBox="0 0 16.000000 16.000000"
 preserveAspectRatio="xMidYMid meet">
<metadata>
Created by potrace 1.11, written by Peter Selinger 2001-2013
</metadata>
<g transform="translate(0.000000,16.000000) scale(0.006250,-0.006250)"
fill="#000000" stroke="none">
<path d="M1117 2550 c-15 -5 -41 -20 -58 -35 -18 -14 -48 -35 -68 -45 -20 -11
-45 -28 -56 -37 -36 -32 -94 -127 -101 -165 -7 -40 -8 -41 -74 -23 -34 8 -65
-23 -55 -55 5 -16 12 -20 29 -16 62 16 79 -15 51 -95 -12 -34 -13 -44 -3 -50
15 -9 17 -82 5 -176 -6 -43 -5 -63 2 -63 6 0 11 6 12 13 0 14 13 -16 22 -53
l6 -25 -96 -2 c-53 -2 -124 -10 -157 -19 -71 -18 -256 -30 -256 -16 0 5 -22
12 -49 16 -35 5 -55 13 -68 30 -10 12 -28 28 -41 35 -12 6 -22 19 -22 27 0 9
-9 23 -20 32 -11 10 -42 55 -70 101 l-50 84 0 -371 c0 -237 4 -372 10 -372 6
0 7 20 4 48 l-5 47 15 -30 c10 -21 15 -25 15 -12 1 10 6 15 11 12 6 -3 10 -1
10 6 0 7 3 9 7 6 3 -4 12 -2 20 4 7 6 32 10 55 9 24 -1 57 -3 74 -4 23 -1 30
-5 26 -15 -3 -8 4 -5 16 7 14 14 34 22 57 22 20 0 51 7 71 15 32 13 98 26 135
26 17 0 29 69 29 173 0 28 4 56 8 63 5 8 44 12 112 14 104 2 105 1 109 -22 2
-13 8 -64 15 -114 10 -84 13 -90 34 -89 12 0 22 -3 22 -8 0 -5 6 -6 13 -1 16
10 67 11 61 1 -3 -4 0 -8 5 -8 18 0 12 -18 -8 -25 -18 -5 -42 -28 -100 -94
-17 -19 -34 -30 -41 -26 -6 4 -19 0 -28 -8 -9 -8 -30 -17 -45 -21 -69 -16
-137 -55 -158 -90 -24 -42 -38 -47 -31 -11 l4 25 -88 -2 c-74 -1 -81 -2 -44
-8 45 -7 44 -7 -17 -8 -100 -3 -75 -22 27 -22 98 0 113 -10 53 -37 -68 -29
-117 -56 -146 -80 -27 -22 -37 -23 -163 -23 l-134 0 -6 -25 c-4 -14 -4 -29 -1
-32 4 -3 47 -5 97 -4 49 1 90 -1 90 -5 0 -4 -9 -22 -21 -40 -20 -34 -21 -34
-95 -34 l-74 0 0 -425 0 -425 620 0 c407 0 620 3 620 10 0 13 87 13 95 1 3 -6
244 -10 615 -11 l610 0 0 425 0 425 -78 0 c-76 0 -79 1 -112 35 l-34 35 40 1
c21 1 45 1 52 0 27 -4 10 20 -33 45 -38 22 -54 26 -96 22 -39 -4 -55 -1 -67
11 -34 34 -215 131 -244 131 -7 0 -40 13 -73 29 -34 17 -72 31 -85 33 -14 2
-31 7 -37 11 -7 5 -13 6 -13 4 0 -13 31 -76 40 -82 5 -3 15 -15 21 -26 10 -20
9 -20 -20 2 -20 15 -39 44 -56 89 -16 41 -41 83 -66 109 -40 41 -48 71 -10 37
31 -28 93 -56 124 -56 22 0 28 -4 23 -16 -3 -9 -2 -12 4 -9 6 4 9 12 8 18 -2
7 9 33 24 58 l27 47 48 -5 c27 -3 54 -12 61 -21 7 -10 12 -11 12 -4 0 19 20
14 20 -5 1 -16 2 -16 15 1 8 11 15 15 15 9 0 -6 12 -13 26 -16 19 -3 24 -1 20
10 -5 11 -2 11 15 2 14 -7 19 -7 15 0 -4 6 11 15 36 21 24 6 50 13 58 15 8 2
48 6 87 10 40 3 83 9 96 14 32 12 77 2 78 -18 0 -10 4 -8 10 8 5 13 10 77 12
142 2 109 3 119 21 119 15 0 17 5 12 31 -3 17 -6 34 -6 38 0 4 -37 8 -82 10
-46 1 -105 4 -133 6 -27 1 -86 4 -130 5 -49 1 -72 4 -60 9 16 6 12 9 -18 14
-38 6 -127 79 -127 105 0 6 -4 12 -8 12 -9 0 -52 76 -52 91 0 5 -8 18 -17 28
-12 15 -21 18 -35 10 -15 -8 -20 -5 -29 18 -6 15 -11 39 -11 53 0 13 -9 36
-20 50 -10 14 -21 43 -25 65 -9 54 -61 140 -120 197 -69 66 -153 128 -185 135
-16 3 -28 9 -28 14 0 11 -315 10 -353 -1z m461 -338 c3 -9 -2 -13 -14 -10 -9
1 -19 9 -22 16 -3 9 2 13 14 10 9 -1 19 -9 22 -16z m-292 -262 c16 0 57 -87
50 -106 -2 -6 2 -22 11 -33 8 -12 12 -25 9 -28 -3 -4 -34 2 -68 12 -35 9 -68
19 -75 21 -12 3 -11 27 2 79 12 48 25 67 42 61 8 -3 21 -6 29 -6z m526 -22
c-7 -7 -12 -8 -12 -2 0 6 3 14 7 17 3 4 9 5 12 2 2 -3 -1 -11 -7 -17z m-200
-40 c24 -19 26 -51 5 -70 -22 -20 -15 -54 14 -63 10 -4 19 -11 19 -16 0 -12
-17 -12 -25 1 -4 6 -15 5 -30 -2 -19 -9 -29 -6 -57 13 -18 12 -34 23 -34 23
-1 1 -5 12 -9 25 -7 23 -6 24 37 18 24 -3 50 -1 58 4 11 8 10 9 -8 4 -14 -4
-28 -1 -39 10 -15 15 -14 18 8 40 28 28 39 30 61 13z m-615 -34 c-3 -3 -12 -4
-19 -1 -8 3 -5 6 6 6 11 1 17 -2 13 -5z m-162 -155 c11 -17 -1 -21 -15 -4 -8
9 -8 15 -2 15 6 0 14 -5 17 -11z m895 -8 c0 -6 15 -12 33 -14 31 -4 31 -4 -5
-5 -26 -2 -38 -7 -38 -17 0 -8 -9 -15 -20 -15 -22 0 -25 12 -10 41 11 19 40
27 40 10z m49 -104 c0 -8 -2 -8 -5 -1 -3 8 -18 9 -47 3 -55 -11 -57 -11 -57 0
0 9 86 20 103 13 4 -2 7 -9 6 -15z m-863 -346 c-9 -16 -13 -30 -11 -32 7 -8
32 -128 25 -124 -4 3 -17 25 -29 51 -22 47 -21 69 5 112 21 32 27 27 10 -7z
m937 -96 c25 -35 7 -30 -21 6 -13 16 -18 27 -10 24 7 -3 21 -17 31 -30z m57
-45 c0 -5 -2 -10 -4 -10 -3 0 -8 5 -11 10 -3 6 -1 10 4 10 6 0 11 -4 11 -10z
m-1156 -69 c-11 -9 -19 -21 -17 -27 2 -7 -10 -23 -27 -38 -18 -14 -27 -26 -21
-26 20 0 11 -20 -11 -25 -63 -15 -108 -13 -118 5 -8 14 4 31 63 92 l72 75 40
-20 c38 -19 39 -20 19 -36z m95 -2 c-30 -7 -35 -3 -19 16 10 12 16 13 28 3 13
-11 11 -13 -9 -19z m190 -55 c5 3 12 -1 15 -10 4 -10 13 -13 25 -9 11 3 23 0
27 -6 5 -9 2 -10 -9 -6 -10 3 -17 2 -17 -2 0 -5 7 -12 15 -15 9 -3 15 -14 13
-23 -3 -18 3 -20 35 -8 14 6 16 3 10 -11 -5 -14 -3 -16 10 -11 22 9 45 15 33
9 -4 -2 -2 -8 5 -13 23 -15 -48 -11 -85 5 -37 16 -102 70 -117 98 -9 18 -8 18
10 8 12 -6 25 -8 30 -6z m-1008 -21 c13 -16 12 -17 -3 -4 -17 13 -22 21 -14
21 2 0 10 -8 17 -17z m709 13 c0 -2 -8 -10 -17 -17 -16 -13 -17 -12 -4 4 13
16 21 21 21 13z m770 -6 c17 -10 17 -10 -35 -42 -45 -28 -85 -41 -85 -27 0 5
12 12 28 15 33 8 82 35 82 46 0 8 -40 -11 -50 -23 -3 -3 -17 -8 -33 -11 -20
-4 -25 -2 -17 7 5 6 7 15 3 18 -6 7 15 11 45 10 6 -1 12 3 12 8 0 12 31 11 50
-1z m-140 -82 c0 -5 -11 -8 -25 -8 -14 0 -25 4 -25 9 0 5 11 8 25 7 14 0 25
-4 25 -8z m-63 -4 c-3 -3 -12 -4 -19 -1 -8 3 -5 6 6 6 11 1 17 -2 13 -5z m313
-75 c0 -10 -39 -19 -89 -19 -37 0 -42 2 -31 15 12 15 120 19 120 4z m-640 -24
c30 -8 88 -15 130 -16 51 0 69 -3 55 -9 -33 -14 -158 -11 -213 5 -32 10 -66
13 -87 9 -23 -4 -35 -2 -35 5 0 6 9 11 19 11 11 0 23 5 27 11 3 6 16 8 28 5
11 -4 46 -13 76 -21z m487 -11 c-16 -15 -167 -27 -167 -14 0 6 15 10 33 10 17
0 37 4 44 8 6 4 32 7 57 7 34 0 42 -3 33 -11z m458 -224 c3 -5 1 -10 -4 -10
-6 0 -11 5 -11 10 0 6 2 10 4 10 3 0 8 -4 11 -10z m50 -12 c7 -16 21 -25 45
-28 26 -4 30 -7 15 -11 -30 -8 -116 2 -109 12 3 6 14 7 25 4 23 -8 24 2 2 27
-13 14 -13 18 -2 18 8 0 19 -10 24 -22z m65 14 c0 -4 -9 -8 -20 -9 -11 -1 -20
2 -20 8 0 5 9 9 20 9 11 0 20 -4 20 -8z m120 -11 c14 -26 13 -31 -6 -31 -14 0
-54 35 -54 47 0 13 51 -1 60 -16z m85 10 c10 -17 -11 -21 -31 -6 -18 14 -18
14 3 15 12 0 24 -4 28 -9z m125 -20 c0 -5 -6 -22 -14 -38 -8 -15 -19 -44 -25
-63 -7 -24 -10 -27 -8 -10 1 14 -2 31 -7 38 -5 9 -1 18 10 27 15 11 16 14 4
15 -11 0 -10 3 4 11 15 9 16 13 5 20 -10 6 -8 9 9 9 12 0 22 -4 22 -9z m39 -8
c0 -5 -4 -17 -9 -28 -8 -18 -9 -17 -9 8 -1 15 4 27 9 27 6 0 10 -3 9 -7z
m-161 -36 c3 -14 -1 -18 -19 -15 -12 2 -23 11 -25 21 -3 25 40 19 44 -6z
m-432 -68 c-3 -34 -6 -73 -6 -87 0 -14 -3 -23 -6 -19 -4 3 -8 42 -10 87 -2 67
0 80 13 80 13 0 15 -9 9 -61z m231 55 c-3 -3 -12 -4 -19 -1 -8 3 -5 6 6 6 11
1 17 -2 13 -5z m-197 -99 c0 -52 -4 -95 -8 -95 -5 0 -8 43 -8 95 0 52 3 95 8
95 4 0 8 -43 8 -95z m170 61 c9 -1 21 -5 28 -10 7 -4 12 -1 12 9 0 22 18 10
66 -45 39 -44 39 -44 7 -21 -18 12 -33 26 -33 31 0 4 -7 10 -14 13 -11 4 -13
1 -9 -11 6 -16 5 -16 -11 1 -21 21 -36 22 -36 2 0 -20 -16 -19 -24 1 -4 9 -9
14 -12 11 -4 -3 3 -19 15 -35 12 -17 21 -35 21 -42 0 -6 7 -24 15 -40 15 -29
15 -30 -9 -30 -23 0 -28 8 -47 70 -27 88 -58 124 -73 84 -3 -8 -2 -12 4 -9 12
7 30 -36 30 -70 0 -13 7 -31 16 -40 9 -9 14 -19 11 -22 -14 -13 -33 8 -52 56
-11 28 -23 51 -28 51 -5 0 -6 7 -3 16 3 9 3 21 -1 27 -4 7 -9 3 -14 -9 -7 -16
-8 -16 -8 7 l-1 25 68 -9 c37 -5 74 -10 82 -11z m229 10 c5 -6 12 -36 15 -66
3 -30 8 -76 12 -102 4 -30 2 -48 -4 -48 -12 0 -22 24 -22 51 0 11 -7 51 -16
89 l-15 69 -41 -2 c-22 -1 -43 3 -45 8 -5 15 104 16 116 1z m-1445 -128 c-3
-62 -10 -138 -14 -168 l-8 -55 -3 50 c-1 28 -2 60 -1 73 0 12 -3 22 -9 22 -5
0 -9 -9 -9 -21 0 -19 -1 -20 -17 -3 -10 10 -18 21 -18 25 0 4 -3 11 -7 15 -5
4 -8 36 -8 71 l0 64 43 19 c23 11 45 20 50 20 4 0 5 -51 1 -112z m1394 75 c6
-15 12 -36 12 -47 0 -14 -8 -5 -20 23 -22 49 -23 51 -12 51 4 0 13 -12 20 -27z
m-1858 -23 c8 -5 11 -10 5 -10 -5 0 -17 5 -25 10 -8 5 -10 10 -5 10 6 0 17 -5
25 -10z m1543 -50 c3 -11 1 -20 -4 -20 -5 0 -9 9 -9 20 0 11 2 20 4 20 2 0 6
-9 9 -20z m284 -2 c-3 -8 -6 -5 -6 6 -1 11 2 17 5 13 3 -3 4 -12 1 -19z m-357
-99 c0 -50 -4 -78 -10 -74 -11 7 -9 155 3 155 4 0 7 -36 7 -81z m75 51 c3 -5
1 -10 -4 -10 -6 0 -11 5 -11 10 0 6 2 10 4 10 3 0 8 -4 11 -10z m-35 -10 c0
-5 -4 -10 -10 -10 -5 0 -10 5 -10 10 0 6 5 10 10 10 6 0 10 -4 10 -10z m389
-6 c2 -2 -12 -4 -33 -4 -22 0 -35 4 -31 10 5 9 52 4 64 -6z m-231 -6 c34 1 62
-3 62 -8 0 -17 -133 -11 -155 6 -19 16 -19 16 5 8 14 -4 53 -7 88 -6z m97 2
c3 -5 1 -10 -4 -10 -6 0 -11 5 -11 10 0 6 2 10 4 10 3 0 8 -4 11 -10z m-255
-45 c0 -8 -4 -15 -10 -15 -5 0 -10 7 -10 15 0 8 5 15 10 15 6 0 10 -7 10 -15z
m-1110 -5 c0 -5 -4 -10 -10 -10 -5 0 -10 5 -10 10 0 6 5 10 10 10 6 0 10 -4
10 -10z m1288 -45 c-3 -3 -9 2 -12 12 -6 14 -5 15 5 6 7 -7 10 -15 7 -18z
m-178 -21 c0 -8 -4 -12 -10 -9 -5 3 -10 10 -10 16 0 5 5 9 10 9 6 0 10 -7 10
-16z m-40 -31 c0 -22 -2 -25 -10 -13 -13 20 -13 40 0 40 6 0 10 -12 10 -27z
m190 17 c0 -5 -10 -10 -22 -10 -19 0 -20 2 -8 10 19 13 30 13 30 0z m-1099
-10 c5 0 9 -4 9 -10 0 -5 -11 -10 -25 -10 -16 0 -25 6 -25 16 0 11 5 14 16 10
9 -3 20 -6 25 -6z m949 -10 c0 -5 -4 -10 -10 -10 -5 0 -10 5 -10 10 0 6 5 10
10 10 6 0 10 -4 10 -10z m-750 -36 c88 -19 112 -34 55 -34 -50 0 -158 33 -163
50 -3 8 2 10 14 6 11 -3 53 -13 94 -22z m750 0 c0 -8 -4 -12 -10 -9 -5 3 -10
10 -10 16 0 5 5 9 10 9 6 0 10 -7 10 -16z m-40 -14 c0 -5 -2 -10 -4 -10 -3 0
-8 5 -11 10 -3 6 -1 10 4 10 6 0 11 -4 11 -10z"/>
<path d="M600 940 c0 -5 5 -10 10 -10 6 0 10 5 10 10 0 6 -4 10 -10 10 -5 0
-10 -4 -10 -10z"/>
<path d="M1969 2173 c-12 -15 -12 -16 4 -10 10 4 34 7 53 7 21 0 33 4 29 10
-10 16 -71 12 -86 -7z"/>
<path d="M613 1933 c-14 -21 -13 -27 5 -63 16 -33 17 -40 5 -40 -10 0 -13 -6
-9 -16 3 -9 6 -18 6 -20 0 -2 5 -4 11 -4 5 0 7 5 4 10 -4 6 6 10 24 10 16 0
31 -5 33 -11 5 -15 38 0 38 17 0 8 -7 17 -15 20 -12 5 -13 9 -4 20 9 11 9 21
2 37 -7 15 -7 29 -1 40 11 20 13 19 -40 21 -36 2 -47 -2 -59 -21z m71 -91 c2
-4 -4 -9 -15 -9 -11 -1 -17 2 -14 8 7 11 22 12 29 1z"/>
<path d="M645 1324 c-12 -12 -13 -19 -4 -30 6 -8 17 -14 23 -14 7 0 6 3 -2 9
-10 6 -10 10 2 20 12 10 16 9 25 -6 8 -14 10 -15 11 -2 0 15 -18 39 -31 39 -4
0 -15 -7 -24 -16z"/>
<path d="M235 1311 c-3 -5 -1 -12 5 -16 5 -3 10 1 10 9 0 18 -6 21 -15 7z"/>
<path d="M260 1305 c0 -8 5 -15 10 -15 6 0 10 7 10 15 0 8 -4 15 -10 15 -5 0
-10 -7 -10 -15z"/>
<path d="M316 1311 c-4 -7 -5 -15 -2 -18 9 -9 19 4 14 18 -4 11 -6 11 -12 0z"/>
<path d="M395 1311 c-7 -12 12 -24 25 -16 11 7 4 25 -10 25 -5 0 -11 -4 -15
-9z"/>
<path d="M2096 1311 c-4 -7 -5 -15 -2 -18 9 -9 19 4 14 18 -4 11 -6 11 -12 0z"/>
<path d="M2126 1311 c-4 -7 -5 -15 -2 -18 9 -9 19 4 14 18 -4 11 -6 11 -12 0z"/>
<path d="M2248 1313 c-10 -3 -18 -9 -18 -15 0 -6 3 -8 7 -5 3 4 12 2 18 -3 9
-8 14 -6 18 4 7 18 -1 24 -25 19z"/>
<path d="M175 1300 c3 -5 12 -10 20 -10 8 0 17 5 20 10 4 6 -5 10 -20 10 -15
0 -24 -4 -20 -10z"/>
<path d="M340 1299 c0 -5 5 -7 10 -4 6 3 10 8 10 11 0 2 -4 4 -10 4 -5 0 -10
-5 -10 -11z"/>
<path d="M2020 1300 c0 -5 11 -10 24 -10 14 0 28 5 31 10 4 6 -7 10 -24 10
-17 0 -31 -4 -31 -10z"/>
<path d="M2150 1300 c0 -5 5 -10 10 -10 6 0 10 5 10 10 0 6 -4 10 -10 10 -5 0
-10 -4 -10 -10z"/>
<path d="M2200 1300 c0 -5 5 -10 10 -10 6 0 10 5 10 10 0 6 -4 10 -10 10 -5 0
-10 -4 -10 -10z"/>
<path d="M2488 1223 c7 -3 16 -2 19 1 4 3 -2 6 -13 5 -11 0 -14 -3 -6 -6z"/>
<path d="M2020 1151 c19 -17 50 -33 68 -37 33 -6 323 4 331 12 11 11 -17 14
-153 15 -133 0 -191 8 -261 34 -12 4 -7 -5 15 -24z"/>
<path d="M2440 1150 c10 -6 9 -9 -1 -12 -8 -3 3 -5 24 -6 29 -1 37 2 37 16 0
15 -2 15 -10 2 -5 -8 -10 -10 -10 -5 0 6 -12 11 -27 12 -16 0 -21 -2 -13 -7z"/>
<path d="M200 1140 c0 -5 23 -10 50 -10 28 0 50 5 50 10 0 6 -22 10 -50 10
-27 0 -50 -4 -50 -10z"/>
<path d="M2491 1039 c-1 -9 -9 -23 -19 -32 -16 -15 -22 -14 -71 9 -77 35 -72
24 8 -19 74 -40 151 -51 151 -22 0 11 -11 15 -40 15 -38 0 -40 1 -30 21 6 11
9 25 6 32 -2 7 -5 6 -5 -4z"/>
</g>
</svg>
